<svg width="193" height="182" viewBox="0 0 193 182" fill="none" xmlns="http://www.w3.org/2000/svg">
<g clip-path="url(#clip0_44_316)">
<path fill-rule="evenodd" clip-rule="evenodd" d="M192.952 87.7633L192.891 27.3935L107.914 58.5117L107.847 0L0 40.2083L0.0700018 100.599L34.7926 87.1811L35.7077 86.8437L35.7743 145.316L84.849 127.477L108.733 118.702L108.783 161.075L150.932 182L193 130.218L192.952 87.7633ZM34.1165 85.3744L1.99078 97.7884L1.9259 41.5492L105.926 2.77429L105.991 59.0289L34.1165 85.3744ZM84.1899 125.663L37.6951 142.566L37.6302 86.3008L190.97 30.1507L191.035 86.4139L84.1899 125.663Z" fill="black"/>
<path fill-rule="evenodd" clip-rule="evenodd" d="M50.0371 99.8469C50.0354 98.339 50.2969 96.9085 50.8199 95.5587C51.3412 94.2088 52.0386 92.9878 52.9103 91.8956C53.7478 90.8514 54.6981 89.9412 55.7629 89.165C56.8278 88.3888 57.8995 87.8014 58.9814 87.4047C60.065 87.008 61.1367 86.8071 62.2033 86.8019C63.2681 86.7985 64.2372 87.0029 65.1106 87.4202C65.9482 87.8856 66.6318 88.6 67.1549 89.5669C67.6796 90.532 67.9428 91.7685 67.9445 93.278L67.9462 95.1723L62.6066 97.1317L62.6049 95.2358C62.6032 93.9392 62.2443 93.1149 61.5281 92.7628C60.812 92.4108 59.9642 92.4142 58.9882 92.7714C58.0106 93.1303 57.1628 93.7486 56.4483 94.6244C55.7339 95.502 55.3767 96.5891 55.3784 97.8874L55.3989 117.675C55.3989 118.975 55.7578 119.799 56.474 120.149C57.1901 120.501 58.0379 120.498 59.0139 120.139C59.9915 119.782 60.8376 119.164 61.5538 118.288C62.2682 117.412 62.6254 116.323 62.6237 115.025L62.6169 107.972L58.3763 109.528L58.3712 104.791L67.9531 101.277L67.965 113.065C67.9667 114.645 67.7052 116.091 67.1822 117.407C66.6609 118.722 65.9806 119.9 65.1448 120.944C64.2714 122.037 63.304 122.971 62.2392 123.747C61.1743 124.523 60.1026 125.111 59.0207 125.507C57.9371 125.906 56.8637 126.105 55.7988 126.11C54.734 126.115 53.782 125.885 52.9444 125.42C52.071 125.004 51.372 124.331 50.8472 123.398C50.3225 122.469 50.0576 121.214 50.0576 119.634L50.0371 99.8469Z" fill="black"/>
<path fill-rule="evenodd" clip-rule="evenodd" d="M92.2407 84.635C92.239 83.134 92.4988 81.7104 93.0184 80.3674C93.538 79.0244 94.2319 77.8086 95.1002 76.7232C95.9326 75.6825 96.8778 74.7775 97.9375 74.0047C98.9972 73.2319 100.065 72.648 101.142 72.253C102.219 71.858 103.287 71.6588 104.347 71.6536C105.407 71.6502 106.371 71.8545 107.241 72.2684C108.075 72.7321 108.753 73.4431 109.276 74.4048C109.798 75.3648 110.059 76.5961 110.061 78.0971L110.081 97.7898C110.083 99.3612 109.823 100.8 109.304 102.109C108.784 103.418 108.107 104.592 107.275 105.629C106.405 106.718 105.443 107.647 104.385 108.42C103.323 109.193 102.257 109.777 101.18 110.172C100.103 110.567 99.0348 110.766 97.9751 110.771C96.9137 110.776 95.9685 110.546 95.1327 110.084C94.2644 109.67 93.5687 109.001 93.0457 108.073C92.5244 107.148 92.2612 105.899 92.2612 104.326L92.2407 84.635ZM97.5751 102.377C97.5768 103.67 97.9341 104.491 98.6468 104.84C99.3579 105.19 100.202 105.186 101.175 104.829C102.147 104.472 102.99 103.859 103.701 102.985C104.412 102.114 104.768 101.032 104.766 99.739L104.747 80.048C104.745 78.7565 104.388 77.9356 103.675 77.5853C102.963 77.235 102.12 77.2384 101.147 77.5939C100.175 77.9511 99.3322 78.5676 98.6212 79.4383C97.9101 80.3107 97.5546 81.3944 97.5563 82.6858L97.5751 102.377Z" fill="black"/>
<path fill-rule="evenodd" clip-rule="evenodd" d="M140.104 58.7559L134.738 97.9617L129.845 99.7921L125.847 77.1489L125.744 77.1872L121.844 102.784L116.952 104.614L111.511 69.45L117.016 67.3901L119.638 90.0246L119.74 89.9881L123.796 64.8556L127.77 63.3694L132.024 85.9674L132.126 85.9291L134.6 60.8141L140.104 58.7559Z" fill="black"/>
<path fill-rule="evenodd" clip-rule="evenodd" d="M147.558 91.7165L147.526 60.5179L141.538 62.6992L141.533 57.8377L158.684 51.5905L158.689 56.4521L152.702 58.6333L152.734 89.8302L147.558 91.7165Z" fill="black"/>
<path fill-rule="evenodd" clip-rule="evenodd" d="M161.584 87.4173L161.548 50.6445L166.839 48.7227L166.854 64.4739L173.391 62.0999L173.375 46.347L178.666 44.4252L178.704 81.1963L173.411 83.1198L173.396 66.7481L166.86 69.122L166.877 85.4938L161.584 87.4173Z" fill="black"/>
<path fill-rule="evenodd" clip-rule="evenodd" d="M14.2963 54.3517C14.2946 52.8644 14.5509 51.4548 15.0634 50.1229C15.5742 48.791 16.2576 47.5869 17.1118 46.5107C17.9318 45.4811 18.8629 44.5828 19.9067 43.8176C20.9488 43.0523 22.0012 42.4718 23.0621 42.0814C24.1213 41.6893 25.1737 41.4924 26.2175 41.4871C27.2613 41.4837 28.2112 41.6858 29.0671 42.097C29.8888 42.5548 30.5568 43.2596 31.0711 44.2131C31.5853 45.165 31.8432 46.3863 31.845 47.8737L31.8467 49.7411L26.6139 51.6741L26.6121 49.805C26.6104 48.5249 26.2568 47.713 25.5564 47.3658C24.8542 47.0186 24.0239 47.022 23.0672 47.3744C22.1088 47.7286 21.2785 48.3384 20.5798 49.2021C19.8794 50.0676 19.5292 51.1404 19.5309 52.4187L19.5497 71.9341C19.5514 73.2141 19.9016 74.0278 20.6037 74.375C21.3059 74.7222 22.1362 74.7188 23.0946 74.3646C24.0513 74.0105 24.8798 73.4024 25.582 72.537C26.2807 71.6732 26.6326 70.6004 26.6309 69.3204L26.6241 62.3655L22.4676 63.8995L22.4625 59.2284L31.8535 55.7614L31.8638 67.3873C31.8655 68.9455 31.6109 70.3724 31.0984 71.668C30.5859 72.9654 29.9196 74.128 29.0996 75.1575C28.2454 76.2355 27.2955 77.1562 26.2534 77.9215C25.2096 78.6885 24.1589 79.2672 23.0997 79.6594C22.0388 80.0498 20.9864 80.2484 19.9426 80.252C18.8988 80.2571 17.966 80.0308 17.1442 79.5713C16.2883 79.1601 15.6033 78.4968 15.0907 77.5795C14.5748 76.6604 14.3168 75.4236 14.3151 73.8654L14.2963 54.3517Z" fill="black"/>
<path fill-rule="evenodd" clip-rule="evenodd" d="M35.231 46.6233C35.2293 45.136 35.4838 43.7263 35.9963 42.3944C36.5089 41.0625 37.1922 39.8585 38.0464 38.7823C38.8664 37.7527 39.7975 36.8544 40.8413 36.0891C41.8835 35.3239 42.9341 34.7434 43.995 34.353C45.0559 33.9609 46.1083 33.7639 47.1521 33.7587C48.1943 33.7553 49.1441 33.9574 50.0017 34.3686C50.8218 34.8263 51.4915 35.5311 52.0057 36.4847C52.5182 37.4366 52.7762 38.6579 52.7779 40.1453L52.7984 59.6589C52.8001 61.2171 52.5438 62.644 52.033 63.9396C51.5205 65.2369 50.8525 66.3995 50.0342 67.4291C49.1783 68.5071 48.2301 69.4278 47.188 70.1931C46.1442 70.9601 45.0918 71.5388 44.0326 71.9309C42.9717 72.3213 41.921 72.52 40.8772 72.5236C39.8334 72.5286 38.9006 72.3023 38.0789 71.8428C37.223 71.4317 36.5379 70.7683 36.0237 69.851C35.5094 68.932 35.2515 67.6951 35.2498 66.137L35.231 46.6233ZM40.4843 64.2056C40.486 65.4857 40.8362 66.2993 41.5384 66.6466C42.2405 66.9938 43.0691 66.9903 44.0275 66.6362C44.9842 66.2821 45.8145 65.674 46.5166 64.8085C47.2154 63.9448 47.5656 62.872 47.5639 61.592L47.5451 42.0766C47.5434 40.7965 47.1914 39.9846 46.491 39.6374C45.7888 39.2902 44.9586 39.2936 44.0019 39.646C43.0435 40.0001 42.2132 40.6099 41.5144 41.4737C40.814 42.3392 40.4638 43.4119 40.4655 44.6903L40.4843 64.2056Z" fill="black"/>
<path fill-rule="evenodd" clip-rule="evenodd" d="M56.1643 38.8947C56.1626 37.4074 56.4188 35.9978 56.9313 34.6659C57.4421 33.334 58.1255 32.1299 58.9797 31.0537C59.7997 30.0241 60.7308 29.1258 61.7746 28.3605C62.8167 27.5953 63.8691 27.0148 64.93 26.6244C65.9892 26.2323 67.0416 26.0354 68.0854 26.0301C69.1293 26.0267 70.0791 26.2288 70.935 26.64C71.7568 27.0978 72.4247 27.8026 72.939 28.7561C73.4532 29.708 73.7112 30.9293 73.7129 32.4167L73.7317 51.9303C73.7334 53.4885 73.4788 54.9154 72.9663 56.211C72.4538 57.5084 71.7875 58.671 70.9675 59.7005C70.1133 60.7785 69.1634 61.6992 68.1213 62.4645C67.0775 63.2315 66.0268 63.8102 64.9676 64.2024C63.9067 64.5928 62.8543 64.7914 61.8105 64.795C60.7667 64.8001 59.8339 64.5738 59.0122 64.1143C58.1562 63.7031 57.4712 63.0398 56.9587 62.1225C56.4427 61.2035 56.1848 59.9666 56.1831 58.4084L56.1643 38.8947ZM61.4176 56.4771C61.4193 57.7571 61.7695 58.5708 62.4717 58.918C63.1738 59.2652 64.0041 59.2618 64.9625 58.9076C65.9192 58.5535 66.7478 57.9454 67.4499 57.08C68.1486 56.2162 68.5006 55.1434 68.4989 53.8634L68.4801 34.348C68.4784 33.0679 68.1247 32.256 67.4243 31.9088C66.7221 31.5616 65.8919 31.565 64.9352 31.9174C63.9767 32.2716 63.1465 32.8814 62.4477 33.7451C61.7473 34.6106 61.3971 35.6833 61.3988 36.9617L61.4176 56.4771Z" fill="black"/>
<path fill-rule="evenodd" clip-rule="evenodd" d="M77.4339 59.287L77.3981 22.3327L85.1456 19.4737C88.1558 18.3612 90.4382 18.3491 91.998 19.4357C93.5543 20.5223 94.3368 22.5866 94.3385 25.6322L94.3556 42.9156C94.359 46.3758 93.5321 49.2348 91.875 51.4891C90.2161 53.7452 87.8329 55.4485 84.7202 56.5973L77.4339 59.287ZM82.636 25.3834L82.6633 52.3719L85.0739 51.4822C86.5448 50.9398 87.5886 50.1814 88.2037 49.2106C88.817 48.2397 89.1245 46.9579 89.1228 45.3669L89.1057 27.5635C89.104 26.1107 88.8118 25.0932 88.231 24.5127C87.6467 23.9323 86.5875 23.9254 85.0465 24.4937L82.636 25.3834Z" fill="black"/>
<path fill-rule="evenodd" clip-rule="evenodd" d="M121.555 156.205L121.519 119.432L126.809 117.51L126.825 133.263L133.363 130.887L133.345 115.134L138.638 113.213L138.674 149.985L133.383 151.907L133.366 135.535L126.83 137.909L126.847 154.283L121.555 156.205Z" fill="white"/>
<path fill-rule="evenodd" clip-rule="evenodd" d="M159.704 105.494L159.83 134.044C159.831 135.239 159.619 136.419 159.193 137.582C158.769 138.747 158.164 139.864 157.38 140.935C156.597 142.009 155.694 142.954 154.671 143.772C153.649 144.589 152.557 145.211 151.399 145.634C150.237 146.059 149.155 146.231 148.149 146.156C147.142 146.079 146.246 145.791 145.461 145.293C144.676 144.794 144.061 144.122 143.616 143.276C143.174 142.43 142.95 141.41 142.949 140.215L142.823 111.663L148.041 109.757L148.168 137.795C148.168 139.093 148.476 139.937 149.091 140.327C149.704 140.718 150.472 140.745 151.393 140.408C152.313 140.072 153.081 139.483 153.693 138.644C154.308 137.805 154.613 136.738 154.611 135.438L154.485 107.4L159.704 105.494Z" fill="white"/>
<path fill-rule="evenodd" clip-rule="evenodd" d="M164.692 140.291L164.656 103.812L172.278 101.025C173.949 100.415 175.373 100.15 176.55 100.234C177.727 100.316 178.691 100.647 179.442 101.226C180.194 101.806 180.732 102.592 181.057 103.583C181.382 104.574 181.546 105.669 181.546 106.864L181.548 108.196C181.549 109.187 181.473 110.051 181.321 110.791C181.168 111.53 180.938 112.212 180.631 112.836C180.052 114.004 179.166 115.148 177.974 116.267C179.202 116.4 180.107 116.924 180.687 117.838C181.268 118.753 181.56 120.186 181.561 122.131L181.563 124.181C181.566 127.392 180.793 130.134 179.243 132.409C177.693 134.686 175.213 136.446 171.803 137.692L164.692 140.291ZM169.879 106.823L169.889 116.866L172.241 116.006C173.982 115.37 175.148 114.507 175.745 113.417C176.341 112.328 176.639 110.947 176.637 109.274C176.635 107.633 176.3 106.526 175.636 105.948C174.97 105.372 173.767 105.403 172.026 106.037L169.879 106.823ZM169.894 121.477L169.904 133.158L172.156 132.336C173.212 131.949 174.04 131.492 174.636 130.967C175.234 130.441 175.685 129.85 175.992 129.191C176.296 128.533 176.484 127.815 176.552 127.038C176.618 126.262 176.652 125.429 176.651 124.541C176.651 123.618 176.598 122.836 176.496 122.189C176.392 121.545 176.187 121.038 175.879 120.672C175.539 120.319 175.077 120.138 174.498 120.126C173.917 120.116 173.151 120.286 172.197 120.634L169.894 121.477Z" fill="white"/>
<path fill-rule="evenodd" clip-rule="evenodd" d="M71.4815 120.185L71.4866 84.0707L79.7968 81.0439C85.8757 78.8304 88.9161 81.257 88.9144 88.3237C88.9144 90.4536 88.5839 92.384 87.9248 94.1114C87.2656 95.8389 86.1091 97.4606 84.4535 98.9766L90.0249 113.431L84.5523 115.424L79.7423 101.758L76.6509 102.883L76.6492 118.303L71.4815 120.185ZM76.6543 87.0584L76.6526 98.3184L79.5907 97.2475C80.502 96.9166 81.2293 96.5244 81.7692 96.0742C82.3091 95.624 82.7315 95.1073 83.0364 94.5224C83.3055 93.9511 83.4929 93.2997 83.5934 92.5699C83.6956 91.84 83.745 91.0181 83.7467 90.104C83.7467 89.1917 83.6956 88.4073 83.5951 87.7507C83.4929 87.0942 83.2902 86.5673 82.987 86.1717C82.3449 85.4588 81.1288 85.4281 79.3386 86.0796L76.6543 87.0584Z" fill="black"/>
</g>
<defs>
<clipPath id="clip0_44_316">
<rect width="193" height="182" fill="white"/>
</clipPath>
</defs>
</svg>
